# xmcd
#
# Track frame offsets:
#	150
#	14545
#	29843
#	42080
#	59100
#	77981
#	91571
#	103242
#	118503
#	134968
#	150875
#	164221
#	178051
#	192480
#	208717
#	224881
#	246431
#	275672
#
# Disc length: 3831 seconds
#
# Revision: 3
# Processed by: cddbd v1.4PL0 Copyright (c) Steve Scherf et al.
# Submitted via: audiograbber 1.80.04
#
DISCID=220ef512
DTITLE=Various Artist - Grootste Country Saamdans Treffers (2)
DYEAR=1999
DGENRE=Country
TTITLE0=Bellamy Brothers - If I Said You Had A Beautiful Body
TTITLE1=Smokie - If You Think You Know How To Love Me
TTITLE2=Joe Dolan - You're Such A Good Looking Woman
TTITLE3=Jolly Cowboys - Country Medly (Chattahoochee, Bootsccotin' Boogie, Sea 
TTITLE3=Cruise)
TTITLE4=Nikky Lalo - Insensitive
TTITLE5=Rocking Horse - I Can't Dance
TTITLE6=Tina Dean - My Baby Loves Me
TTITLE7=Melody Bracey - When Will I Be Loved
TTITLE8=Bellamy Brothers - Tough Love
TTITLE9=Vangie Coker - Teenage Queenie
TTITLE10=Clive Bruce - Crystal Chandeliers
TTITLE11=Tom Jones - Help Me Make It Through The Night
TTITLE12=Tommy Dell - I Can't Stop Loving You
TTITLE13=Nikky Lalo - You're Still The One
TTITLE14=Don Kelly - Because It's Love
TTITLE15=Slic and Silky - Mississippi
TTITLE16=Boogie Woogie Singers - Medley (Seasons In The Sun, Stand By Your Man,
TTITLE16=Little Soldier Blue, Kentucky Blue)
TTITLE17=Mad Cow Boy - Oh! Lonesome Me
EXTD=
EXTT0=
EXTT1=
EXTT2=
EXTT3=
EXTT4=
EXTT5=
EXTT6=
EXTT7=
EXTT8=
EXTT9=
EXTT10=
EXTT11=
EXTT12=
EXTT13=
EXTT14=
EXTT15=
EXTT16=
EXTT17=
PLAYORDER=
